<svg width="1000" height="1000" xmlns="http://www.w3.org/2000/svg">
  <defs>
    <!-- تعريف الأنماط والفلاتر -->
    <filter id="noise" x="0%" y="0%" width="100%" height="100%">
      <feTurbulence type="fractalNoise" baseFrequency="0.03" numOctaves="5" seed="3" stitchTiles="stitch" />
      <feColorMatrix type="saturate" values="0" />
    </filter>
    
    <filter id="roughen">
      <feTurbulence type="turbulence" baseFrequency="0.05" numOctaves="2" seed="5" />
      <feDisplacementMap in="SourceGraphic" scale="20" />
    </filter>
    
    <pattern id="rockPattern" patternUnits="userSpaceOnUse" width="200" height="200">
      <rect width="200" height="200" fill="#3d2c1a" />
      <circle cx="50" cy="50" r="30" fill="#4a3520" filter="url(#roughen)" />
      <circle cx="150" cy="70" r="25" fill="#5a4530" filter="url(#roughen)" />
      <circle cx="100" cy="150" r="40" fill="#2a1c10" filter="url(#roughen)" />
      <circle cx="30" cy="180" r="20" fill="#6a5540" filter="url(#roughen)" />
    </pattern>
    
    <pattern id="crystalPattern" patternUnits="userSpaceOnUse" width="300" height="300">
      <rect width="300" height="300" fill="none" />
      <polygon points="150,50 180,120 150,190 120,120" fill="rgba(200, 230, 255, 0.2)" filter="url(#roughen)" />
      <polygon points="250,150 200,200 250,250 300,200" fill="rgba(180, 220, 255, 0.15)" filter="url(#roughen)" />
      <polygon points="50,200 100,230 50,260 0,230" fill="rgba(220, 240, 255, 0.1)" filter="url(#roughen)" />
    </pattern>
    
    <pattern id="goldPattern" patternUnits="userSpaceOnUse" width="400" height="400">
      <rect width="400" height="400" fill="none" />
      <circle cx="100" cy="100" r="5" fill="rgba(255, 215, 0, 0.3)" />
      <circle cx="300" cy="200" r="3" fill="rgba(255, 215, 0, 0.2)" />
      <circle cx="200" cy="300" r="4" fill="rgba(255, 215, 0, 0.25)" />
      <circle cx="350" cy="50" r="2" fill="rgba(255, 215, 0, 0.15)" />
      <circle cx="50" cy="350" r="3" fill="rgba(255, 215, 0, 0.2)" />
    </pattern>
  </defs>
  
  <!-- الخلفية الرئيسية للمغارة -->
  <rect width="1000" height="1000" fill="url(#rockPattern)" />
  
  <!-- طبقة الضوضاء لإضافة ملمس الصخور -->
  <rect width="1000" height="1000" filter="url(#noise)" opacity="0.3" />
  
  <!-- طبقة الكريستالات -->
  <rect width="1000" height="1000" fill="url(#crystalPattern)" />
  
  <!-- طبقة الذهب -->
  <rect width="1000" height="1000" fill="url(#goldPattern)" />
  
  <!-- تأثيرات إضافية -->
  <rect width="1000" height="1000" fill="none" stroke="#3d2c1a" stroke-width="20" stroke-opacity="0.1" />
  
  <!-- خطوط متعرجة تمثل شقوق في الصخور -->
  <path d="M0,300 Q250,350 500,250 T1000,350" fill="none" stroke="#2a1c10" stroke-width="2" stroke-opacity="0.2" />
  <path d="M0,600 Q300,500 600,650 T1000,550" fill="none" stroke="#2a1c10" stroke-width="3" stroke-opacity="0.15" />
  <path d="M300,0 Q350,250 250,500 T350,1000" fill="none" stroke="#2a1c10" stroke-width="2" stroke-opacity="0.2" />
  <path d="M700,0 Q650,300 750,600 T650,1000" fill="none" stroke="#2a1c10" stroke-width="3" stroke-opacity="0.15" />
</svg>