<svg width="512" height="512" viewBox="0 0 512 512" fill="none" xmlns="http://www.w3.org/2000/svg">
  <!-- تعريف التدرجات اللونية والفلاتر -->
  <defs>
    <linearGradient id="gemGradient" x1="0%" y1="0%" x2="100%" y2="100%">
      <stop offset="0%" stop-color="#9C27B0" />
      <stop offset="50%" stop-color="#673AB7" />
      <stop offset="100%" stop-color="#3F51B5" />
    </linearGradient>
    
    <linearGradient id="gemHighlight" x1="30%" y1="30%" x2="70%" y2="70%">
      <stop offset="0%" stop-color="#FFFFFF" stop-opacity="0.7" />
      <stop offset="100%" stop-color="#FFFFFF" stop-opacity="0" />
    </linearGradient>
    
    <filter id="glow" x="-20%" y="-20%" width="140%" height="140%">
      <feGaussianBlur stdDeviation="15" result="blur" />
      <feComposite in="SourceGraphic" in2="blur" operator="over" />
    </filter>
    
    <filter id="innerGlow" x="-10%" y="-10%" width="120%" height="120%">
      <feGaussianBlur stdDeviation="5" result="blur" />
      <feComposite in="SourceGraphic" in2="blur" operator="over" />
    </filter>
    
    <filter id="shadow" x="-10%" y="-10%" width="120%" height="120%">
      <feDropShadow dx="0" dy="10" stdDeviation="10" flood-color="#000" flood-opacity="0.5" />
    </filter>
  </defs>
  
  <!-- الجوهرة الأساسية -->
  <g filter="url(#shadow)">
    <path d="M256 96L352 192L256 416L160 192L256 96Z" fill="url(#gemGradient)" />
    
    <!-- الوجوه الجانبية للجوهرة -->
    <path d="M256 96L352 192L256 416Z" fill="url(#gemGradient)" opacity="0.8" />
    <path d="M256 96L160 192L256 416Z" fill="url(#gemGradient)" opacity="0.6" />
    
    <!-- حواف الجوهرة -->
    <path d="M256 96L352 192L256 416L160 192L256 96Z" stroke="#512DA8" stroke-width="2" fill="none" />
  </g>
  
  <!-- انعكاسات الضوء على الجوهرة -->
  <g filter="url(#innerGlow)">
    <path d="M256 120L320 192L256 360L192 192L256 120Z" fill="url(#gemHighlight)" opacity="0.3" />
    <path d="M256 140L300 192L256 320L212 192L256 140Z" fill="url(#gemHighlight)" opacity="0.5" />
  </g>
  
  <!-- وهج الجوهرة -->
  <circle cx="256" cy="256" r="120" fill="#9C27B0" opacity="0.1" filter="url(#glow)" />
  
  <!-- لمعان في أعلى الجوهرة -->
  <path d="M256 96L280 140L256 160L232 140L256 96Z" fill="white" opacity="0.6" />
  
  <!-- انعكاسات صغيرة -->
  <circle cx="240" cy="180" r="5" fill="white" opacity="0.8" />
  <circle cx="270" cy="200" r="3" fill="white" opacity="0.6" />
</svg>