<svg width="512" height="512" viewBox="0 0 512 512" fill="none" xmlns="http://www.w3.org/2000/svg">
  <!-- تعريف التدرجات اللونية -->
  <defs>
    <linearGradient id="woodGradient" x1="0%" y1="0%" x2="100%" y2="100%">
      <stop offset="0%" stop-color="#8B4513" />
      <stop offset="50%" stop-color="#A0522D" />
      <stop offset="100%" stop-color="#6B3E26" />
    </linearGradient>
    
    <linearGradient id="goldGradient" x1="0%" y1="0%" x2="100%" y2="100%">
      <stop offset="0%" stop-color="#FFD700" />
      <stop offset="50%" stop-color="#FFC107" />
      <stop offset="100%" stop-color="#FF8C00" />
    </linearGradient>
    
    <filter id="glow" x="-20%" y="-20%" width="140%" height="140%">
      <feGaussianBlur stdDeviation="8" result="blur" />
      <feComposite in="SourceGraphic" in2="blur" operator="over" />
    </filter>
    
    <filter id="shadow" x="-10%" y="-10%" width="120%" height="120%">
      <feDropShadow dx="0" dy="10" stdDeviation="10" flood-color="#000" flood-opacity="0.5" />
    </filter>
  </defs>
  
  <!-- الصندوق الخشبي -->
  <g filter="url(#shadow)">
    <!-- قاعدة الصندوق -->
    <rect x="96" y="256" width="320" height="160" rx="20" fill="url(#woodGradient)" />
    
    <!-- غطاء الصندوق (مفتوح) -->
    <path d="M96 236C96 224.954 104.954 216 116 216H396C407.046 216 416 224.954 416 236V256H96V236Z" fill="url(#woodGradient)" />
    
    <!-- حواف الصندوق -->
    <rect x="96" y="256" width="320" height="160" rx="20" stroke="#6B3E26" stroke-width="8" fill="none" />
    <path d="M96 236C96 224.954 104.954 216 116 216H396C407.046 216 416 224.954 416 236V256H96V236Z" stroke="#6B3E26" stroke-width="8" fill="none" />
    
    <!-- زخارف ذهبية على الصندوق -->
    <rect x="106" y="266" width="300" height="10" rx="5" fill="url(#goldGradient)" />
    <rect x="106" y="396" width="300" height="10" rx="5" fill="url(#goldGradient)" />
    <rect x="106" y="226" width="300" height="10" rx="5" fill="url(#goldGradient)" />
    
    <!-- قفل الصندوق -->
    <rect x="236" y="236" width="40" height="60" rx="5" fill="url(#goldGradient)" stroke="#6B3E26" stroke-width="2" />
  </g>
  
  <!-- محتويات الصندوق (العملات الذهبية) -->
  <g filter="url(#glow)">
    <!-- كومة من العملات الذهبية -->
    <ellipse cx="256" cy="336" rx="120" ry="40" fill="url(#goldGradient)" />
    
    <!-- عملات ذهبية متناثرة -->
    <circle cx="200" cy="300" r="20" fill="url(#goldGradient)" stroke="#FF8C00" stroke-width="2" />
    <circle cx="240" cy="290" r="25" fill="url(#goldGradient)" stroke="#FF8C00" stroke-width="2" />
    <circle cx="290" cy="310" r="22" fill="url(#goldGradient)" stroke="#FF8C00" stroke-width="2" />
    <circle cx="330" cy="320" r="18" fill="url(#goldGradient)" stroke="#FF8C00" stroke-width="2" />
    <circle cx="180" cy="330" r="15" fill="url(#goldGradient)" stroke="#FF8C00" stroke-width="2" />
    <circle cx="220" cy="340" r="20" fill="url(#goldGradient)" stroke="#FF8C00" stroke-width="2" />
    <circle cx="270" cy="330" r="23" fill="url(#goldGradient)" stroke="#FF8C00" stroke-width="2" />
    <circle cx="310" cy="340" r="17" fill="url(#goldGradient)" stroke="#FF8C00" stroke-width="2" />
  </g>
  
  <!-- وهج ذهبي -->
  <ellipse cx="256" cy="320" rx="150" ry="70" fill="url(#goldGradient)" opacity="0.2" filter="url(#glow)" />
</svg>