<svg width="64" height="64" viewBox="0 0 64 64" xmlns="http://www.w3.org/2000/svg">
  <!-- Filters for glow and shadow effects -->
  <defs>
    <filter id="treasureGlow" x="-50%" y="-50%" width="200%" height="200%">
      <feGaussianBlur stdDeviation="2" result="blur" />
      <feComposite in="SourceGraphic" in2="blur" operator="over" />
    </filter>
    <filter id="treasureShadow" x="-50%" y="-50%" width="200%" height="200%">
      <feDropShadow dx="0" dy="3" stdDeviation="2" flood-color="rgba(0,0,0,0.5)" flood-opacity="0.5" />
    </filter>
    <linearGradient id="chestBody" x1="0%" y1="0%" x2="100%" y2="100%">
      <stop offset="0%" stop-color="#8B4513" />
      <stop offset="50%" stop-color="#A0522D" />
      <stop offset="100%" stop-color="#6B3E26" />
    </linearGradient>
    <linearGradient id="chestTop" x1="0%" y1="0%" x2="100%" y2="100%">
      <stop offset="0%" stop-color="#A0522D" />
      <stop offset="100%" stop-color="#8B4513" />
    </linearGradient>
    <linearGradient id="metalTrim" x1="0%" y1="0%" x2="100%" y2="100%">
      <stop offset="0%" stop-color="#FFD700" />
      <stop offset="50%" stop-color="#D4AF37" />
      <stop offset="100%" stop-color="#B8860B" />
    </linearGradient>
    <linearGradient id="treasureGlow" x1="0%" y1="0%" x2="100%" y2="100%">
      <stop offset="0%" stop-color="#FFD700" stop-opacity="0.6" />
      <stop offset="100%" stop-color="#FFD700" stop-opacity="0" />
    </linearGradient>
  </defs>
  
  <!-- Treasure chest base -->
  <rect x="12" y="24" width="40" height="24" rx="2" ry="2" fill="url(#chestBody)" filter="url(#treasureShadow)" />
  
  <!-- Chest lid (closed) -->
  <path d="M12 24 L12 16 C12 14 14 12 16 12 L48 12 C50 12 52 14 52 16 L52 24" fill="url(#chestTop)" filter="url(#treasureShadow)" />
  
  <!-- Metal trim and details -->
  <rect x="10" y="24" width="44" height="2" fill="url(#metalTrim)" />
  <rect x="12" y="20" width="40" height="1" fill="url(#metalTrim)" />
  <rect x="12" y="16" width="40" height="1" fill="url(#metalTrim)" />
  <rect x="14" y="44" width="36" height="1" fill="url(#metalTrim)" />
  <rect x="14" y="40" width="36" height="1" fill="url(#metalTrim)" />
  <rect x="14" y="36" width="36" height="1" fill="url(#metalTrim)" />
  <rect x="14" y="32" width="36" height="1" fill="url(#metalTrim)" />
  <rect x="14" y="28" width="36" height="1" fill="url(#metalTrim)" />
  
  <!-- Lock and keyhole -->
  <rect x="30" y="18" width="4" height="8" rx="1" ry="1" fill="url(#metalTrim)" />
  <circle cx="32" cy="22" r="1" fill="#6B3E26" />
  
  <!-- Treasure glow effect -->
  <rect x="14" y="26" width="36" height="20" rx="1" ry="1" fill="url(#treasureGlow)" filter="url(#treasureGlow)" opacity="0.5" />
  
  <!-- Coins and gems peeking out -->
  <circle cx="20" cy="28" r="2" fill="#FFD700" />
  <circle cx="26" cy="30" r="2" fill="#FFD700" />
  <circle cx="32" cy="29" r="2" fill="#FFD700" />
  <circle cx="38" cy="31" r="2" fill="#FFD700" />
  <circle cx="44" cy="28" r="2" fill="#FFD700" />
  
  <!-- Gem highlights -->
  <polygon points="24,32 22,35 26,35" fill="#22D3EE" />
  <polygon points="36,33 34,36 38,36" fill="#9C27B0" />
  <polygon points="30,34 28,37 32,37" fill="#22D3EE" />
  
  <!-- Corner reinforcements -->
  <rect x="12" y="24" width="3" height="3" fill="url(#metalTrim)" />
  <rect x="49" y="24" width="3" height="3" fill="url(#metalTrim)" />
  <rect x="12" y="45" width="3" height="3" fill="url(#metalTrim)" />
  <rect x="49" y="45" width="3" height="3" fill="url(#metalTrim)" />
</svg>